<?xml version="1.0" encoding="UTF-8" standalone="no"?>
<svg	xmlns="http://www.w3.org/2000/svg"	xmlns:xlink="http://www.w3.org/1999/xlink"	width="1200"	height="400">
	<defs	id="defs4">
		<linearGradient	id="linearGradient4073">
			<stop	id="stop4075"	style="stop-color:#b80000;stop-opacity:1"	offset="0" />
			<stop	id="stop4077"	style="stop-color:#600000;stop-opacity:1"	offset="1" />
		</linearGradient>
		<radialGradient	cx="504.53781"	cy="98.539085"	r="547"	fx="504.53781"	fy="98.539085"	id="radialGradient4079"	xlink:href="#linearGradient4073"	gradientUnits="userSpaceOnUse"	gradientTransform="matrix(0.1288353,0.45960366,-0.74120225,0.20777255,653.03511,-111.86114)" />
		<radialGradient	cx="604"	cy="189"	r="466"	fx="604"	fy="189"	id="radialGradient4093"	xlink:href="#linearGradient4073"	gradientUnits="userSpaceOnUse"	gradientTransform="matrix(1,0,0,0.3776824,0,117.61803)" />
		<radialGradient	cx="965.61237"	cy="102.02985"	r="11.705005"	fx="965.61237"	fy="102.02985"	id="radialGradient4103"	xlink:href="#linearGradient4073"	gradientUnits="userSpaceOnUse"	gradientTransform="matrix(0.82970118,-0.16305629,0.48615101,2.4737474,114.29187,21.403286)" />
	</defs>
	<path	d="m 955,61 c 10,34 -12.30143,48.67107 -6,66 4,11 16,18 21,-4 2.59401,-11.41364 -14.81186,-27.141106 -1,-64 3.50896,-9.364146 -14,2 -14,2 z"	id="drop"	style="fill:url(#radialGradient4103);stroke:none" />
	<path	d="
	M 18,349 C 476,97 1163,21 1163,21 1163,21 403,162 18,349 z 
	M 112,388 C 500,89 957,8 957,8 957,8 554,117 112,388 z
	M 707.81248,121.56251 c -19.6875,1.875 -16.875,38.4375 -16.875,38.4375 0,0 2.8125,-38.4375 -15.9375,-31.875 -18.75,6.5625 3.75,48.75 -12.1875,50.625 -15.9375,1.875 12.1875,-52.5 -12.1875,-45 -24.375,7.5 5.625,50.625 -3.75,66.5625 -9.375,15.9375 -19.6875,16.875 -28.125,-1.875 -8.4375,-18.75 22.5,-64.6875 -9.375,-55.3125 -31.875,9.375 -5.625,104.99999 -12.1875,128.43749 -6.5625,23.4375 -18.75,20.625 -25.3125,-2.8125 -6.5625,-23.4375 35.36125,-125.50396 1.875,-115.31249 -21.5625,6.5625 -20.625,44.0625 -20.625,44.0625 0,0 -3.46731,-37.5197 -11.25,-35.625 -12.47149,3.03618 -14.0625,44.0625 -14.0625,44.0625 0,0 3.75,-38.4375 -10.3125,-33.75 -14.0625,4.6875 13.125,99.37499 -1.875,104.06249 -15,4.6875 5.625,-109.68749 -13.125,-99.37499 -18.75,10.3125 0.9375,71.24999 -15,75.93749 -15.93749,4.6875 9.375,-74.99999 -7.49999,-63.74999 -16.875,11.25 -13.125,34.6875 -13.125,34.6875 0,0 0.9375,-28.125 -10.3125,-22.5 -11.25,5.625 -22.5,5.625 -22.5,5.625 l 104.06249,-50.625 132.1875,-31.875 z"	id="scar"	style="fill:url(#radialGradient4079);stroke:none" />
	<use xlink:href="#drop" transform="translate(-400,-20)scale(1.2,1.6)"/>
	<use xlink:href="#drop" transform="scale(1.2,1.5)translate(-700,90)"/>
</svg>